<svg xmlns="http://www.w3.org/2000/svg" width="60" height="32" viewBox="0 0 60 32" fill="none">
<path d="M19.8782 7.66382C11.7236 5.71305 6.02488 10.3488 2.51956 5.13621C2.50907 5.11521 2.49857 5.10473 2.48808 5.08376C2.39363 4.93693 2.51956 4.72717 2.68747 4.76911C9.90802 6.48917 11.0835 5.41938 14.1165 5.78645C16.9186 6.12207 19.8782 7.66382 19.8782 7.66382Z" fill="white"/>
<path d="M21.3162 8.97456C14.1375 7.91528 9.04741 13.2747 5.20625 9.15287C5.19575 9.14239 5.18526 9.12141 5.16427 9.11093C5.05933 8.99556 5.13279 8.7858 5.2902 8.79628C11.8496 9.27873 13.3923 8.12505 16.0897 8.00968C18.6083 7.9048 21.3162 8.97456 21.3162 8.97456Z" fill="white"/>
<path d="M22.6489 10.6632C16.3833 9.81372 13.6967 15.4353 8.61714 11.9952C8.60664 11.9847 8.59615 11.9743 8.57516 11.9533C8.47022 11.8589 8.5017 11.5862 8.64862 11.5862C14.2005 11.5967 15.6488 10.3066 17.9893 10.0235C21.1588 9.64589 22.6489 10.6632 22.6489 10.6632Z" fill="white"/>
<path d="M25.472 12.5196C22.1975 12.8657 22.7119 15.4877 19.1227 14.9003C18.6504 14.8269 18.7554 14.4913 18.9653 14.4284C21.9773 13.5683 21.9773 12.9915 23.0583 12.5615C24.0868 12.1734 25.472 12.5196 25.472 12.5196Z" fill="white"/>
<path d="M23.9922 11.7119C19.2695 11.8063 18.0627 15.1939 14.085 14.0927C13.4763 13.9249 13.6862 13.4634 14.0116 13.4215C18.5664 12.6978 18.7866 12.0266 20.4763 11.628C22.0611 11.2504 23.9922 11.7119 23.9922 11.7119Z" fill="white"/>
<path d="M21.2949 7.65318C21.2634 7.70561 21.19 7.71609 21.1375 7.69512C20.1615 7.13925 19.2486 6.48899 18.1991 5.77581C17.2125 5.11506 15.0925 4.21309 10.6846 4.42285C8.58561 4.52773 5.39515 4.95775 2.09973 2.70282C1.3021 2.16792 0.493987 1.25546 0.0741874 0.405949C0.0322103 0.332522 0.0112221 0.238125 0.00072781 0.143728C-0.00976646 0.0493311 0.0951755 -0.0240665 0.189653 0.00738968C8.34424 3.27966 10.6741 2.00013 15.8062 3.18526C17.9156 3.67822 20.5288 6.74072 21.2846 7.50633C21.3265 7.53781 21.3265 7.60072 21.2949 7.65318Z" fill="white"/>
<path d="M28.3897 25.5879C28.2951 25.8813 28.316 26.2276 28.1274 26.4793C27.8963 26.815 27.3297 26.8464 27.0567 26.5421C26.8784 26.385 26.8784 26.1333 26.8153 25.9339C26.4061 24.1405 26.0073 22.3468 25.6085 20.5429C25.5666 20.4172 25.6085 20.3332 25.7343 20.2809C25.9339 20.2283 25.9548 20.4486 26.0176 20.5746C26.4689 21.8017 26.8887 23.0391 27.3506 24.2662C27.4974 24.6859 27.9909 24.5493 28.316 24.6545C28.6624 24.8745 28.4525 25.2836 28.3897 25.5879Z" fill="white"/>
<path d="M28.9248 20.6372C28.9669 20.7527 28.9039 20.8889 28.778 20.9098C28.7046 20.9204 28.6415 20.9098 28.6206 20.8049C28.3161 20.1967 28.0537 19.557 27.7389 18.9487C27.3297 18.6024 26.8993 18.2459 26.6476 17.753C26.1963 16.9559 26.2381 15.9176 26.7419 15.1519C26.7838 15.0995 26.8153 15.0366 26.8575 14.9841C26.9309 14.8793 27.0883 14.9002 27.1302 15.0261C27.1617 15.1205 27.1826 15.2149 27.2248 15.2988C27.7914 17.0713 28.3373 18.8647 28.9248 20.6372Z" fill="white"/>
<path d="M29.0088 12.1946C28.9879 12.6665 28.8095 13.107 28.694 13.558C28.6833 13.5895 28.673 13.6105 28.6415 13.6209C28.5681 13.6524 28.4947 13.6 28.4947 13.5266C28.505 12.9078 28.7255 12.2995 28.5681 11.6911C28.3373 10.8626 27.7704 10.1389 27.7285 9.25793C27.7073 8.79646 27.8229 8.34548 27.9175 7.89449C27.5815 7.1918 27.424 6.3842 27.6024 5.61859C27.6339 5.52419 27.6445 5.52419 27.697 5.59759C28.0224 6.06958 28.4525 6.54153 28.4525 7.16031C28.4107 8.04131 27.9278 8.92231 28.2533 9.80332C28.5156 10.5899 29.0822 11.3241 29.0088 12.1946Z" fill="white"/>
<path d="M31.7795 9.15276C31.7585 10.3064 30.751 11.2294 30.8665 12.4041C30.8665 12.855 30.9818 13.3165 30.9293 13.7675C30.8559 14.166 30.4046 14.229 30.0795 14.3234C29.8905 14.4073 29.6806 14.187 29.7331 13.9982C29.7331 12.6348 29.7331 11.2609 29.7331 9.89742C29.754 9.33107 29.8905 8.73323 30.2787 8.30324C30.5202 8.02005 30.7719 7.73689 31.0343 7.4537C31.0867 7.39076 31.1183 7.31736 31.108 7.24393C31.0867 6.99223 31.0343 6.77197 31.1498 6.4783C31.3282 6.11122 31.5593 5.89097 31.8004 5.64975C31.8426 5.60781 31.9053 5.62878 31.916 5.68121C32.084 6.42587 31.916 7.23345 31.5696 7.90468C31.6536 8.30324 31.7795 8.72274 31.7795 9.15276Z" fill="white"/>
<path d="M45.0346 4.93668C43.6073 5.33521 42.9461 5.81765 42.3795 6.26863C42.3795 6.26863 43.6704 5.81765 45.5278 5.6184C50.7965 5.04156 51.1007 7.00281 56.999 4.72691C57.1982 4.69546 57.2507 4.85276 57.1982 4.93668C56.4112 6.30012 55.5401 7.81039 52.2447 7.94672C48.6555 8.09358 46.7874 6.65671 43.4183 7.08672C41.267 7.3594 40.1545 8.03064 39.5352 8.43968C46.8817 7.03427 46.273 10.2646 53.4725 8.54456C53.5565 8.52356 53.6511 8.50259 53.7351 8.51308C53.9238 8.53405 53.9975 8.76481 53.8819 8.89067C53.8295 8.95358 53.7561 9.01652 53.7036 9.07943C52.7591 10.0968 51.7619 11.2085 48.4034 10.9568C44.4575 10.6631 44.2057 8.21943 36.6702 10.0863C43.9746 10.0548 43.8487 12.4461 49.3482 11.7329C49.5371 11.7119 49.6524 11.9427 49.5056 12.0685C49.4216 12.1419 49.327 12.2049 49.2536 12.2678C48.4246 12.9181 47.2175 13.7151 44.9506 13.2537C40.2279 12.2678 40.8263 10.317 34.7497 11.3868C39.4827 11.5127 39.1576 13.3481 44.0168 13.7991C44.0168 13.7991 44.0168 13.7991 44.0271 13.7991C44.2894 13.8305 44.3631 14.1766 44.1426 14.3235C43.9746 14.4388 43.7856 14.5227 43.6073 14.5961C40.0602 15.9701 38.4124 11.5232 34.0569 12.5195C37.174 12.7922 36.9219 13.841 39.7347 14.6066C40.039 14.6905 40.0077 15.0996 39.6717 15.131C36.3344 15.4667 36.6283 13.2222 34.5817 13.1383C34.036 13.1173 33.5322 13.411 33.2593 13.8935C32.4513 15.2988 32.7764 16.6308 32.7239 17.3545C32.9129 18.1096 33.1965 18.8439 33.2068 19.6408C33.2174 20.1967 33.1649 20.7736 32.9863 21.3084C32.6505 22.4201 32.3148 23.5321 31.9684 24.6543C31.895 24.8849 31.9053 25.1366 31.9893 25.3569C32.1152 25.6926 32.2414 26.0177 32.2939 26.3743C32.4197 26.972 32.3357 27.5908 32.1258 28.1676C31.6851 29.2479 31.2441 30.3281 30.8034 31.419C30.7194 31.6181 30.6566 31.8281 30.5095 31.9958C30.2893 32.0378 30.3103 31.7547 30.3312 31.6181C30.7616 27.5802 31.1707 23.5423 31.5905 19.5045L31.9266 18.5396C31.2654 19.1059 30.9715 19.8925 30.5411 20.5953C30.4886 20.763 30.2369 20.7944 30.1844 20.6059C30.2262 19.903 30.3206 19.2005 30.3418 18.4977C30.4046 17.7845 30.3943 17.0608 30.6357 16.3791C30.9084 15.6869 31.4331 15.131 31.8425 14.5332C32.5141 13.6732 33.0178 12.6978 33.3642 11.67C33.5741 11.0407 34.0151 10.4848 34.5817 10.1387C36.5443 8.90115 37.6881 7.83136 39.5458 6.42597C41.2564 5.13593 42.5788 4.12907 43.3346 3.82494C46.7874 2.40904 53.7245 3.92982 59.6647 0.0702289C59.8115 -0.0136828 60.0004 0.154112 59.8852 0.395333C59.3289 1.80075 58.6677 2.70272 57.0933 3.47884C52.5595 5.71279 47.354 4.28641 45.0346 4.93668Z" fill="white"/>
<path d="M31.2654 7.3596C31.2654 7.3596 30.8769 6.67788 29.9324 6.59396C29.2187 6.53105 28.8936 6.77227 28.8936 6.77227C28.8936 6.77227 29.754 6.52057 30.4258 7.11838C31.0974 7.71619 30.7301 8.23011 30.7301 8.23011C30.7301 8.23011 31.4647 7.8001 31.2654 7.3596Z" fill="white"/>
<path d="M31.2232 7.26508C31.2232 7.26508 30.73 6.7407 29.7225 6.69873C29.7225 6.69873 30.3206 6.84555 30.3943 7.17069C30.5202 7.7895 29.9745 8.61804 29.8696 9.0166C29.7856 9.37319 31.2232 7.26508 31.2232 7.26508Z" fill="white"/>
</svg>
